<svg version="1.1" xmlns="http://www.w3.org/2000/svg" style="display: block;" viewBox="0 0 2048 2048" width="1024" height="1024" preserveAspectRatio="none">
<path transform="translate(0,0)" fill="rgb(255,255,255)" d="M 0 0 L 2048 0 L 2048 2048 L 0 2048 L 0 0 z"/>
<path transform="translate(0,0)" fill="rgb(0,0,0)" d="M 383.795 177.475 L 1133.69 177.238 L 1358.66 177.34 L 1416.09 177.247 C 1429.3 177.185 1445.89 176.565 1458.64 178.473 C 1460.51 186.313 1460.09 206.981 1460.1 216.054 L 1460.14 272.009 L 1460.15 510.894 L 1460.16 1534 C 1460.18 1557.38 1461.93 1795.86 1459.07 1802.83 C 1456.84 1804.72 1454.79 1804.41 1451.78 1804.57 L 723.807 1804.66 L 499.035 1804.59 L 427.054 1804.63 C 412.52 1804.62 393.453 1805.1 379.381 1803.45 C 377.617 1793.37 378.146 1772.39 378.137 1761.51 L 378.122 1690.5 L 378.033 1435.46 L 378.133 505.021 L 378.117 289.167 C 378.123 255.535 377.87 221.902 377.95 188.279 C 377.964 182.183 377.585 178.756 383.795 177.475 z"/>
<path transform="translate(0,0)" fill="rgb(255,255,255)" d="M 389.336 185.472 L 1451.91 185.699 L 1452.3 1787.67 C 1452.28 1790.64 1452.52 1793.31 1450.92 1795.74 L 1448.25 1796.1 L 386.409 1796.19 L 386.353 499.726 L 386.305 271.734 C 386.308 260.569 385.325 191.273 387.215 186.203 L 389.336 185.472 z"/>
<path transform="translate(0,0)" fill="rgb(0,0,0)" d="M 566.012 284.227 C 580.086 282.948 575.364 285.305 586.475 289.869 C 587.079 286.786 586.57 286.178 588.442 284.894 C 593.005 284.739 594.093 284.556 598.453 285.525 C 599.571 290.261 599.086 295.424 598.949 300.379 C 598.195 327.564 607.494 361.009 566.32 355.087 C 558.959 354.029 555.639 350.256 551.551 344.185 C 551.53 342.088 551.488 342.863 552.382 340.79 C 562.159 336.87 569.314 350.171 582.118 345.577 C 585.31 342.876 588.326 334.853 586.674 330.739 C 578.547 333.447 574.398 336.289 565.097 334.619 C 549.582 331.834 548.107 311.911 551.219 299.58 C 553.006 292.496 559.45 287.409 566.012 284.227 z"/>
<path transform="translate(0,0)" fill="rgb(255,255,255)" d="M 570.842 293.856 C 590.33 294.002 592.914 315.832 577.889 325.694 C 559.049 325.011 557.521 303.604 570.842 293.856 z"/>
<path transform="translate(0,0)" fill="rgb(0,0,0)" d="M 622.905 284.293 C 664.541 280.815 652.289 305.427 655.434 336.18 C 650.221 336.345 647.909 336.563 642.689 335.701 C 642.175 333.257 642.514 334.076 641.194 331.9 C 627.204 334.487 629.03 343.808 611.705 333.523 C 590.967 303.976 642.603 307.954 640.93 297.513 C 635.33 291.59 630.344 290.129 624.487 296.543 C 620.785 300.596 613.554 304.915 609.711 298.491 C 610.925 291.156 616.514 286.976 622.905 284.293 z"/>
<path transform="translate(0,0)" fill="rgb(255,255,255)" d="M 637.744 312.268 C 638.789 311.966 639.151 312.21 640.387 312.397 C 643.785 323.096 634.844 328.093 625.407 328.247 C 621.275 325.432 619.496 324.136 620.504 319.071 C 625.547 313.697 630.539 313.577 637.744 312.268 z"/>
<path transform="translate(0,0)" fill="rgb(0,0,0)" d="M 510.99 284.29 C 534.176 281.311 542.122 291.966 544.715 313.389 C 536.287 313.718 512.529 311.873 506.97 314.592 C 506.148 328.485 521.958 332.111 530.742 320.148 C 535.464 319.888 540.409 319.856 545.156 319.746 C 541.586 326.244 538.42 330.837 531.724 334.475 C 525.721 337.747 518.656 338.47 512.114 336.483 C 505.369 334.465 499.787 329.698 496.74 323.351 C 488.94 307.448 495.258 291.689 510.99 284.29 z"/>
<path transform="translate(0,0)" fill="rgb(255,255,255)" d="M 514.991 292.974 C 521.65 292.764 530.162 295.488 530.058 303.353 C 527.776 305.432 528.1 304.751 524.25 305.021 C 518.919 305.195 511.635 306.272 507.73 302.757 L 507.669 300.481 C 510.086 296.396 511.107 295.966 514.991 292.974 z"/>
<path transform="translate(0,0)" fill="rgb(0,0,0)" d="M 440.176 265.709 L 453.105 265.709 L 453.467 324.247 L 489.135 324.125 L 489.056 336.403 C 472.743 336.139 456.428 336.076 440.113 336.213 L 440.176 265.709 z"/>
<path transform="translate(0,0)" fill="rgb(0,0,0)" d="M 666.637 265.235 L 679.051 265.291 L 679.232 335.67 L 666.6 336.02 C 666.749 312.425 666.761 288.83 666.637 265.235 z"/>
<path transform="translate(0,0)" fill="rgb(0,0,0)" d="M 1522.83 177.228 C 1530.09 176.431 1576.27 176.083 1580.83 178.15 L 1580.89 180.242 C 1577.4 183.411 1560.87 182.107 1554.84 182.072 C 1554.39 236.266 1554.32 290.463 1554.64 344.657 L 1554.63 637.966 L 1554.57 1798.71 C 1561.15 1798.58 1577.21 1797.5 1582.27 1800.38 L 1580.34 1802.81 C 1575.28 1804.35 1531.65 1803.8 1524.68 1803.26 L 1523.47 1801.69 L 1524.38 1799.44 C 1527.69 1797.29 1544.08 1798.56 1549.15 1798.71 L 1549.23 182.158 C 1541.89 182.031 1531.77 183.528 1524.91 181.438 C 1523.48 181.003 1523.52 179.381 1522.83 177.228 z"/>
<path transform="translate(0,0)" fill="rgb(0,0,0)" d="M 379.871 1826.31 L 382.105 1827.37 C 384.646 1831.33 383.549 1849.32 383.43 1855.02 L 1455.95 1854.8 C 1455.81 1848.08 1453.67 1831.39 1458.56 1827.4 L 1459.43 1828 C 1461.41 1834.32 1461.6 1882.56 1459.67 1888.23 L 1457.12 1887.14 C 1454.29 1883.88 1455.76 1865.43 1455.95 1860.11 L 767.007 1860.19 C 639.534 1860.26 510.603 1859.21 383.288 1860.72 C 383.422 1866.8 384.754 1882.76 382.078 1886.61 L 380.211 1886.87 L 379.299 1885.59 C 378.167 1877.56 378.019 1833.24 379.871 1826.31 z"/>
<path transform="translate(0,0)" fill="rgb(0,0,0)" d="M 308.484 1399.21 C 323.067 1398.08 339.196 1399.64 353.966 1398.73 C 357.461 1398.52 362.261 1398.18 364.849 1400.61 L 364.836 1402.99 C 362.572 1404.69 344.636 1404.3 340.241 1404.38 L 340.194 1798.09 C 346.341 1798.13 358.003 1796.41 363.325 1799.01 C 364.546 1799.61 364.329 1801.52 364.623 1803.52 C 354.02 1803.57 318.641 1804.33 310.357 1802.71 L 309.598 1801.07 L 310.923 1798.95 C 314.79 1796.87 329.608 1797.96 334.933 1798.09 L 335.047 1404.03 C 327.855 1403.94 318.259 1405.27 311.334 1403.4 C 309.425 1402.89 309.694 1401.9 308.484 1399.21 z"/>
<path transform="translate(0,0)" fill="rgb(0,0,0)" d="M 149.39 1496.28 C 154.87 1496.34 160.4 1497.19 165.164 1500.1 C 177.646 1507.72 164.597 1521.11 165.635 1524.49 C 166.33 1526.76 172.092 1529.54 173.496 1535.63 C 174.53 1540.12 173.651 1544.55 171.029 1548.33 C 166.936 1554.24 161.457 1556.31 154.647 1557.55 C 138.298 1557.91 124.311 1546.36 132.93 1530.01 C 138.93 1525.99 140.31 1525.74 136.739 1519.21 C 129.485 1505.94 135.47 1499 149.39 1496.28 z"/>
<path transform="translate(0,0)" fill="rgb(255,255,255)" d="M 147.765 1528.27 C 151.573 1526.62 155.97 1527.16 159.276 1529.66 C 162.582 1532.16 164.287 1536.25 163.739 1540.36 C 163.191 1544.47 160.474 1547.97 156.627 1549.52 C 150.779 1551.88 144.124 1549.09 141.697 1543.27 C 139.271 1537.45 141.976 1530.76 147.765 1528.27 z"/>
<path transform="translate(0,0)" fill="rgb(255,255,255)" d="M 148.065 1504.25 C 152.55 1502.01 158.003 1503.77 160.333 1508.21 C 162.662 1512.65 161.013 1518.14 156.621 1520.56 C 153.701 1522.16 150.14 1522.07 147.311 1520.31 C 144.482 1518.54 142.826 1515.39 142.982 1512.06 C 143.139 1508.73 145.083 1505.74 148.065 1504.25 z"/>
<path transform="translate(0,0)" fill="rgb(0,0,0)" d="M 1713.96 1004.23 C 1723.63 1003.7 1732.84 1004.87 1736.3 1015.66 C 1737.15 1018.28 1736.89 1017.94 1735.62 1019.97 C 1724.79 1022.34 1714.16 992.353 1705.25 1029.94 C 1706.51 1029.21 1707.79 1028.5 1709.08 1027.83 C 1721.23 1021.57 1731.58 1025.88 1737.53 1037.76 C 1739.54 1048.32 1737.17 1058.94 1726.47 1063.68 C 1721.47 1065.84 1715.83 1065.95 1710.75 1063.98 C 1690.64 1056.13 1689.44 1013.28 1713.96 1004.23 z"/>
<path transform="translate(0,0)" fill="rgb(255,255,255)" d="M 1712.66 1033.02 C 1714.24 1032.88 1715.83 1032.79 1717.41 1032.75 C 1730.87 1032.49 1732.72 1047.83 1722.29 1057.27 C 1705.97 1058.14 1700.8 1043.76 1712.66 1033.02 z"/>
<path transform="translate(0,0)" fill="rgb(0,0,0)" d="M 893.275 1897.21 C 902.605 1896.8 911.526 1899.02 915.143 1909.27 C 915.73 1910.93 915.157 1910.9 914.167 1912.38 C 906.249 1913.95 905.9 1910.42 900.236 1906.13 C 889.265 1897.83 884.803 1916.97 883.028 1924.05 C 896.635 1915.15 909.258 1916.3 916.392 1932.03 C 919.844 1960.76 885.338 1968.78 876.811 1943.54 C 871.124 1926.71 873.918 1903.32 893.275 1897.21 z"/>
<path transform="translate(0,0)" fill="rgb(255,255,255)" d="M 892.072 1925.77 C 908.738 1925.54 912.252 1940.73 900.119 1950.46 C 883.635 1950.91 879.719 1936.58 892.072 1925.77 z"/>
<path transform="translate(0,0)" fill="rgb(0,0,0)" d="M 1784.17 1020.16 C 1797.28 1019 1792.36 1022.87 1802.03 1024.42 C 1806.87 1022.18 1814.55 1018.82 1819.89 1020.16 C 1830.69 1022.87 1830.64 1055.07 1827.67 1063.57 L 1824.44 1064.71 C 1812.65 1060.23 1825.09 1030.68 1812.19 1026.84 C 1800.31 1029.85 1802.7 1043.82 1802.75 1053.25 C 1802.8 1058.11 1803.08 1066.3 1795.51 1064.46 C 1790 1058.44 1796.78 1040.6 1790.93 1030.5 C 1788.92 1029.05 1787.93 1027.84 1785 1028.34 C 1769.91 1030.87 1781.77 1056.41 1774.83 1064.23 C 1771.01 1063.94 1772.74 1064.53 1769.51 1062.22 C 1765.74 1054.78 1768.31 1045.66 1768.2 1037.43 C 1768.13 1032.6 1766.72 1024.16 1769.88 1020.88 C 1778.01 1019.57 1773.09 1027.54 1784.17 1020.16 z"/>
<path transform="translate(0,0)" fill="rgb(0,0,0)" d="M 965.34 1913.01 C 972.099 1913.66 973.702 1915.36 979.457 1919.05 C 981.962 1917.23 986.515 1913.6 989.169 1913.19 C 1006.13 1910.56 1007.86 1931 1007.54 1942.96 C 1007.4 1947.98 1007.94 1952.58 1005.44 1956.62 C 1002.27 1957.25 1001.98 1957.57 998.855 1956.59 C 991.477 1948.96 1004.75 1926.48 990.481 1921.35 C 977.899 1922.81 980.793 1938.6 980.951 1948.25 C 980.971 1951.3 981.056 1951.9 980.457 1954.97 C 978.147 1957.28 978.252 1957.07 975.035 1957.86 C 966.773 1954.51 975.945 1930.28 968.584 1922.72 C 965.686 1921.3 965.331 1921.31 961.962 1921.98 C 949.745 1924.38 958.669 1948.64 953.402 1957.38 C 949.14 1957.32 950.919 1957.99 947.732 1955.72 C 944.931 1950.28 945.427 1918.99 946.349 1914.38 C 953.414 1910.02 949.778 1917.12 957.143 1917.17 C 960.543 1914.93 961.51 1914.57 965.34 1913.01 z"/>
<path transform="translate(0,0)" fill="rgb(0,0,0)" d="M 1854.86 1020.02 C 1860.44 1020.02 1864.42 1019.45 1868.06 1024.24 C 1873.26 1024.84 1879.6 1019.28 1885.57 1019.74 C 1901.91 1020.98 1899.12 1052.05 1896.97 1063.15 C 1892.75 1064.44 1894.67 1064.56 1890.97 1063.65 C 1884.22 1056.16 1894.53 1030.23 1882.5 1027.96 C 1870.29 1025.65 1872.25 1044.54 1872.13 1052.8 C 1872.1 1057.63 1873.18 1065.4 1865.55 1064.37 C 1859.87 1058.54 1865.63 1039.66 1862.11 1032.68 C 1860.87 1030.26 1858.65 1028.48 1856 1027.81 C 1852.72 1026.97 1852.39 1027.7 1850.07 1029.09 C 1843.8 1039.9 1850.86 1057.47 1843.71 1063.72 C 1840.99 1064.23 1840.7 1064.63 1838.25 1063.59 C 1836.78 1059.1 1836.47 1025.75 1839 1022.17 C 1848.78 1023.01 1846.03 1025.3 1854.86 1020.02 z"/>
<path transform="translate(0,0)" fill="rgb(0,0,0)" d="M 1035.47 1913.07 C 1047.93 1914.04 1042.93 1922.21 1056.54 1915.5 C 1074.18 1906.81 1075.9 1924.7 1075.59 1937.29 C 1075.48 1941.92 1076.75 1952.74 1074.53 1956.54 C 1071.3 1957.14 1071.51 1957.23 1068.38 1956.36 C 1063.09 1950.18 1069.22 1932.97 1065.52 1925.64 C 1064.34 1923.34 1062.08 1921.8 1059.51 1921.54 C 1048.33 1920.48 1050.53 1941.28 1050.59 1948.47 C 1050.58 1954.97 1051.21 1954.66 1045.55 1957.64 C 1034.14 1956.48 1049.95 1919.13 1032.93 1921.64 C 1016.9 1924.01 1030.96 1947.32 1022 1957.16 C 1018.4 1957.6 1019.88 1958.07 1017.27 1956.13 C 1014.46 1949.49 1012.77 1918.74 1017.34 1913.91 C 1020.03 1913.8 1020.91 1915.14 1023.51 1917.18 L 1024.54 1918 C 1028.78 1915.78 1030.98 1914.66 1035.47 1913.07 z"/>
<path transform="translate(0,0)" fill="rgb(0,0,0)" d="M 183.895 1615.04 C 194.352 1614.12 192.047 1615.19 201.479 1619.62 C 211.298 1614.07 221.873 1608.45 227.356 1623.18 C 229.661 1629.37 230.385 1653.2 227.822 1658.59 C 212.742 1660.63 223.463 1637.04 218.509 1625.5 C 216.191 1623.45 215.699 1622.79 212.417 1622.74 C 200.622 1622.54 203.085 1642.36 203.102 1649.25 C 203.148 1652.44 203.675 1654.93 201.812 1657.31 C 198.061 1659.52 199.902 1659.28 196.273 1659.11 C 190.956 1652.36 200.917 1613.16 180.717 1623.97 C 173.678 1633.99 181.605 1651.14 174.389 1658.09 C 170.803 1658.97 172.42 1659.14 169.322 1658.27 C 167.479 1654.23 166.958 1619.4 170.843 1616.23 C 178.948 1617.81 177.527 1619.88 183.895 1615.04 z"/>
<path transform="translate(0,0)" fill="rgb(0,0,0)" d="M 281.648 1614.19 C 305.405 1615.46 297.939 1634.86 298.825 1652.04 C 298.975 1654.95 296.486 1658.58 294.117 1660.14 C 280.68 1656.37 298.82 1622.47 281.605 1622.13 C 265.982 1621.83 278.324 1650.57 270.038 1658.27 C 267.223 1658.66 267.073 1659 264.622 1657.78 C 263.372 1652.67 263.838 1643.36 263.896 1637.75 C 264.017 1631.2 263.577 1621.74 255.027 1621.68 C 239.96 1629.21 252.415 1649.43 244.364 1658.6 C 240.841 1659.37 242.536 1659.48 239.101 1658.17 C 237.307 1654.59 238.015 1620.62 239.145 1615.38 C 244.363 1613.51 244.579 1615.38 247.544 1618.92 C 260.348 1612.49 259.366 1612.14 271.496 1619.95 C 275.3 1617.52 277.599 1616.17 281.648 1614.19 z"/>
<path transform="translate(0,0)" fill="rgb(0,0,0)" d="M 1664.13 912.076 C 1668.95 912.038 1668.54 911.263 1671.82 913.464 C 1676.89 925.989 1667.45 942.89 1675.7 949.386 C 1678.93 949.71 1678.38 949.16 1680.74 950.696 C 1680.9 953.37 1681.35 955.32 1680.15 957.651 C 1666.63 958.146 1677.66 964.244 1669.45 972.148 C 1662.15 972.064 1663.4 965.738 1663.49 960.75 L 1662.65 958.429 C 1651.99 954.061 1625.6 967.267 1643.22 942.132 C 1650.28 932.064 1657.53 922.483 1664.13 912.076 z"/>
<path transform="translate(0,0)" fill="rgb(255,255,255)" d="M 1662.48 927.676 C 1663.64 931.848 1663.3 944.894 1663.29 949.947 L 1647.68 949.955 C 1647.57 947.722 1660.36 930.625 1662.48 927.676 z"/>
<path transform="translate(0,0)" fill="rgb(0,0,0)" d="M 1653.6 1003.97 C 1660.48 1004.15 1683.65 1002.59 1687.31 1005.72 C 1687.45 1010.12 1688.12 1009.19 1685.91 1011.62 C 1679.53 1013.73 1668.33 1012.89 1661.24 1012.8 C 1660.52 1027.2 1656.12 1024.39 1670.86 1024.13 C 1696.43 1023.68 1698.38 1061.61 1668.54 1065.44 C 1660.62 1064.59 1647.63 1059.29 1646.95 1050.24 C 1648.77 1046.55 1647.45 1047.81 1650.64 1045.95 C 1658.34 1046.67 1666.08 1066.95 1677.63 1052.87 C 1682.74 1046.65 1680.38 1035.8 1674.15 1031.77 C 1666.66 1026.92 1658.18 1039.75 1650.56 1035.34 C 1650.12 1031.65 1652.96 1009.72 1653.6 1003.97 z"/>
<path transform="translate(0,0)" fill="rgb(0,0,0)" d="M 207.288 1496.55 C 215.962 1496.96 233.829 1495.79 240.963 1497.6 C 241.68 1500.89 241.679 1499.21 240.415 1502.76 C 235.661 1506.74 221.624 1505.05 214.348 1505.04 C 213.946 1510.01 213.31 1515.17 212.774 1520.15 C 243.49 1504.17 258.983 1552.33 223.366 1557.65 L 222.342 1557.59 C 214.358 1557.07 200.869 1551.19 201.883 1542.04 C 204.594 1539 203.008 1539.74 206.387 1539 C 214.034 1541.45 220.278 1558.17 231.078 1545.52 C 235.78 1540.01 234.632 1528.64 228.394 1524.88 C 221.53 1520.74 210.199 1532.23 204.082 1527.76 C 203.699 1521.76 206.532 1504.27 207.288 1496.55 z"/>
<path transform="translate(0,0)" fill="rgb(0,0,0)" d="M 1614.14 1004.17 C 1623.64 1003.53 1637.23 1005.61 1639.23 1017.64 C 1640.2 1023.48 1635.52 1027.45 1631.83 1031.5 C 1634.18 1033.72 1641.1 1039.63 1641.14 1042.47 C 1641.53 1066.29 1617.7 1071.8 1601.92 1057.41 C 1600.45 1053.59 1600.17 1052.76 1599.46 1048.75 C 1600.68 1045.11 1599.58 1046.39 1602.52 1044.49 C 1605.63 1044.61 1605.46 1044.47 1608.09 1046.08 L 1608.34 1048.37 C 1614.33 1063.97 1633.39 1058.82 1631.21 1042.62 C 1627.69 1036.18 1622.53 1037.57 1615.48 1034.66 C 1615 1031.56 1614.83 1033.05 1616.19 1030.06 C 1636.47 1025.02 1631.37 1008.62 1614.63 1011.72 C 1609 1015.2 1613.47 1020.19 1604.97 1023.65 C 1601.43 1023.3 1602.92 1023.98 1600.33 1021.54 C 1598.25 1012.69 1607.06 1006.74 1614.14 1004.17 z"/>
<path transform="translate(0,0)" fill="rgb(0,0,0)" d="M 797.445 1897.13 C 808.082 1896.48 821.097 1901.07 821.733 1913.86 C 822.501 1929.31 800.543 1937.52 792.203 1948.57 C 801.509 1948.77 813.929 1947.54 821.976 1951.71 L 821.788 1954.45 C 813.535 1958.23 801.731 1957.24 792.5 1957.09 C 789.601 1957.14 787.185 1957.07 784.286 1956.95 C 781.129 1954.79 782.182 1956.19 780.952 1952.64 C 783.881 1936.39 810.098 1930.17 811.881 1913.35 C 812.382 1908.62 804.948 1903.84 800.454 1904.41 C 792.494 1905.41 791.977 1917.5 785.178 1918.98 C 782.52 1917.14 783.482 1918 781.846 1914.86 C 780.934 1905.88 789.698 1899.48 797.445 1897.13 z"/>
<path transform="translate(0,0)" fill="rgb(0,0,0)" d="M 313.163 1511.2 C 323.072 1511.64 325.278 1513.07 330.887 1521.28 C 331.154 1530.66 331.101 1541.52 331.178 1550.99 C 331.201 1553.91 329.871 1554.48 328.041 1556 C 323.817 1556.49 325.641 1556.95 322.27 1555.15 C 319.2 1543.47 329.224 1514.65 308.147 1519.78 C 295.843 1531.12 307.545 1541.36 301.596 1555.35 C 298.751 1556.47 298.586 1556.1 295.473 1555.52 C 294.682 1554.8 292.889 1553.57 293.109 1552.46 C 294.68 1544.54 288.567 1512.95 298.014 1510.95 C 301.65 1512.8 301.131 1512.63 302.522 1516.68 C 307.218 1513.5 307.88 1512.81 313.163 1511.2 z"/>
<path transform="translate(0,0)" fill="rgb(0,0,0)" d="M 1728.6 928.288 C 1731.68 928.259 1735.14 927.784 1737.66 929.224 L 1737.44 931.939 L 1738.28 932.566 C 1739.62 931.686 1741.2 930.746 1742.45 929.924 C 1751.61 923.911 1764.75 929.062 1765.8 940.904 C 1766.62 950.206 1766.04 961.478 1766.06 971.227 C 1763.98 971.411 1759.24 972.126 1758.11 970.35 C 1755.1 965.622 1756.83 954.525 1756.93 948.75 C 1757.07 941.868 1755.86 933.48 1745.9 934.546 C 1733.14 935.912 1740.61 967.039 1736.46 971.265 C 1733.43 971.444 1732.21 971.814 1729.56 970.343 C 1727.44 966.861 1728.48 935.168 1728.6 928.288 z"/>
<path transform="translate(0,0)" fill="rgb(0,0,0)" d="M 851.249 1896.48 C 853.54 1896.99 853.864 1897.19 856.023 1898.17 C 857.146 1901.71 856.991 1948.95 855.736 1956 C 855.538 1957.12 854.488 1957.23 853.232 1957.81 C 849.951 1957.3 850.014 1957.53 847.483 1955.47 L 847.239 1951.25 L 847.366 1915.08 C 842.458 1915.15 836.768 1916.22 833.503 1912.06 L 834.123 1909.92 C 837.602 1906.91 841.671 1907.08 846.466 1906.48 L 851.249 1896.48 z"/>
<path transform="translate(0,0)" fill="rgb(0,0,0)" d="M 1613.84 911.988 C 1615.76 912.394 1617.17 912.805 1619.07 913.33 C 1620.46 917.589 1619.94 965.468 1619.08 970.491 L 1616.89 971.829 C 1613.62 971.642 1613.61 971.931 1611.1 969.956 L 1610.83 966.25 C 1610.95 954.026 1610.9 941.801 1610.67 929.579 C 1606.28 929.748 1601.16 930.434 1597.26 928.868 C 1596.43 926.523 1596.7 926.463 1597.24 923.962 C 1602.28 920.966 1603.98 922.306 1609.15 920.445 C 1612.38 917.427 1612.45 916.219 1613.84 911.988 z"/>
<path transform="translate(0,0)" fill="rgb(0,0,0)" d="M 273.522 1512.15 C 276.917 1512.04 279.224 1511.57 282.168 1513.16 C 283.718 1517.65 282.635 1549.29 282.505 1556.25 C 279.152 1556.26 276.767 1556.62 273.827 1555.1 C 272.829 1548.66 273.481 1520.24 273.522 1512.15 z"/>
<path transform="translate(0,0)" fill="rgb(0,0,0)" d="M 1708.95 928.245 C 1712.64 928.292 1715.15 927.793 1717.73 929.614 C 1718.89 938.775 1718.15 961.548 1717.75 971.552 C 1714.33 971.702 1713.51 971.655 1710.1 971.281 C 1707.84 968.101 1708.89 934.781 1708.95 928.245 z"/>
<path transform="translate(0,0)" fill="rgb(0,0,0)" d="M 183.139 1546.41 C 186.528 1546.18 188.844 1545.68 191.95 1546.98 C 193.734 1550.4 192.946 1552.27 192.749 1556.56 C 189.291 1556.74 188.237 1556.99 184.865 1555.95 C 182.649 1552.45 183.322 1550.97 183.139 1546.41 z"/>
<path transform="translate(0,0)" fill="rgb(0,0,0)" d="M 273.333 1496.11 C 276.767 1496.15 277.867 1496.08 281.314 1496.85 C 283.49 1499.97 282.7 1500.52 282.818 1505.16 C 279.26 1505.28 277.706 1505.58 274.315 1504.37 C 272.508 1500.93 273.228 1500.63 273.333 1496.11 z"/>
<path transform="translate(0,0)" fill="rgb(0,0,0)" d="M 1710.4 912.853 C 1712.48 911.325 1715.37 911.624 1717.09 913.543 C 1718.81 915.461 1718.78 918.372 1717.04 920.264 C 1715.75 921.66 1713.78 922.204 1711.96 921.67 C 1710.14 921.136 1708.78 919.615 1708.45 917.745 C 1708.12 915.875 1708.87 913.979 1710.4 912.853 z"/>
</svg>